<svg
  width="209.76096mm"
  height="78.041542mm"
  viewBox="0 0 209.76096 78.041542"
  version="1.1"
  id="svg1"
  xml:space="preserve"
  xmlns="http://www.w3.org/2000/svg"
>
  <script type="text/script">
    <![CDATA[ window.dataLayer = window.dataLayer || [];
  function gtag(){dataLayer.push(arguments);}
  gtag('js', new Date());
  gtag('config', 'G-T0143JDGMD'); ]]>
  </script>
  <defs id="defs1" />
  <g id="layer1" transform="translate(-0.11951991,-121.94837)">
    <path
      style="fill: #0169b3; stroke: none"
      d="m 0.11952191,160.96654 v 0.0598 c 2.09892009,0.0433 4.06633519,1.74813 4.66822519,3.70518 0.3835498,1.24712 0.2919342,2.53601 0.2919342,3.8247 v 5.67729 17.27092 c 0,2.27017 -0.4515839,5.23048 1.434309,6.9219 2.4291124,2.17862 6.6271397,1.44464 9.6214677,1.44464 v -2.56973 c -1.689028,0 -4.029286,0.25362 -5.152077,-1.31474 -0.544744,-0.76091 -0.607704,-1.78986 -0.647087,-2.68924 -0.06793,-1.55118 -0.05741,-3.10582 -0.05741,-4.66135 v -18.16734 c 0,-2.7346 0.382668,-5.90624 -1.9132265,-7.92261 -0.4586764,-0.40283 -0.94612,-0.72754 -1.4931475,-0.99634 -0.5815856,-0.28578 -1.2603994,-0.50982 -1.9123506,-0.52328 v -0.0598 c 0.63864,-0.0825 1.2641025,-0.26869 1.8525896,-0.52959 0.4708154,-0.20874 0.9171131,-0.49588 1.314741,-0.82195 2.483051,-2.03617 2.151394,-5.16261 2.151394,-8.03093 v -18.16733 c 0,-1.57166 -0.05294,-3.15497 0.05441,-4.72112 0.06174,-0.90079 0.102362,-1.92411 0.650085,-2.68924 1.130133,-1.57871 3.439752,-1.3745 5.152077,-1.3745 v -2.56972 c -3.011746,0 -7.3528571,-0.74208 -9.7356866,1.56397 -1.7910063,1.7333 -1.3200901,4.73053 -1.3200901,6.98184 v 17.33068 5.49801 c 0,1.10912 0.099475,2.26168 -0.1730114,3.34661 -0.5681139,2.262 -2.4293366,3.99691 -4.78714799,4.18327 M 194.46215,122.77929 v 2.50996 c 1.60646,0 3.88311,-0.17494 4.93387,1.31478 0.6261,0.88765 0.64053,2.00866 0.68601,3.04777 0.0635,1.45202 0.0574,2.90629 0.0574,4.36255 v 17.80876 c 0,2.7221 -0.36217,5.82126 1.97216,7.78364 0.38694,0.32529 0.79793,0.61531 1.25493,0.83485 0.56013,0.26909 1.17701,0.44541 1.79283,0.52494 v 0.0598 c -0.64672,0.0134 -1.27752,0.23982 -1.85259,0.52328 -3.46584,1.7084 -3.16733,5.41657 -3.16733,8.67991 v 17.80877 c 0,1.41655 0.004,2.83068 -0.0574,4.24302 -0.0466,1.06375 -0.0567,2.20114 -0.70685,3.10757 -1.0527,1.4676 -3.3311,1.25498 -4.91303,1.25498 v 2.50996 c 2.79599,0 6.79898,0.68264 9.08367,-1.32576 1.93578,-1.70168 1.49402,-4.61191 1.49402,-6.92125 v -17.15139 -5.37849 c 0,-1.24751 -0.0822,-2.49555 0.28216,-3.70518 0.57495,-1.90856 2.51267,-3.60319 4.55848,-3.64542 -0.4156,-0.19971 -0.93528,-0.19728 -1.3745,-0.36244 -1.07338,-0.40361 -2.00427,-1.16649 -2.60176,-2.14752 -1.37613,-2.25946 -0.86438,-5.35747 -0.86438,-7.88844 v -16.97212 -4.9004 c 0,-1.65646 -0.10503,-3.48902 -1.49407,-4.63359 -2.38346,-1.96398 -6.21632,-1.3425 -9.08362,-1.3425 m -149.342628,46.3147 v -6.2749 h -10.63745 c -1.74203,0 -3.587463,0.17565 -5.318725,-0.0104 -1.368442,-0.14704 -2.087142,-1.6058 -1.961921,-2.85816 0.08217,-0.82181 0.582584,-1.88589 1.424072,-2.16914 0.815255,-0.27443 2.068114,-0.042 2.928287,-0.042 h 13.565737 v -6.2749 H 31.553785 c -1.539957,0 -3.430248,0.31829 -4.145823,-1.43426 -0.107535,-0.26337 -0.178215,-0.55341 -0.206536,-0.83666 -0.127005,-1.2702 0.641531,-2.76961 2.021682,-2.91791 1.731262,-0.18603 3.576691,-0.0104 5.318725,-0.0104 h 10.577689 v -6.15538 H 32.50996 c -3.310481,0 -6.924275,-0.51188 -9.501762,2.03274 -0.511577,0.50506 -0.951793,1.11264 -1.314278,1.7322 -0.433956,0.74172 -0.754958,1.55749 -0.963138,2.39044 -0.494093,1.97689 -0.356706,4.03552 0.210914,5.97609 0.171464,0.5862 0.427227,1.13219 0.707217,1.67331 0.10733,0.20743 0.356917,0.47428 0.347361,0.71713 -0.0127,0.32282 -0.382687,0.72858 -0.527289,1.01594 -0.334286,0.6643 -0.605707,1.3644 -0.766333,2.09163 -0.81968,3.71108 0.117538,8.1464 3.500535,10.2971 2.181388,1.38679 4.82586,1.11724 7.290837,1.11724 4.545301,0 9.080725,-0.0598 13.625498,-0.0598 m 2.868526,-28.98406 v 6.15538 h 10.398406 c 1.717347,0 3.554566,-0.18679 5.258964,0.0171 1.843807,0.22052 2.80592,2.38407 1.892151,3.98692 -0.859932,1.50842 -2.566431,1.19522 -4.043545,1.19522 -3.022984,0 -6.603002,-0.53314 -9.442231,0.68292 -5.056476,2.1657 -4.063745,8.76735 -4.063745,13.18162 v 3.94422 h 6.394422 c 0,-2.01147 0.02369,-4.02454 -2.3e-4,-6.03585 -0.02135,-1.79548 -0.08335,-3.59079 1.554015,-4.78521 1.265839,-0.92341 3.008321,-0.7128 4.482072,-0.7128 3.501173,0 7.486103,0.54948 10.013607,-2.4502 3.526123,-4.18486 2.748581,-12.39797 -2.722771,-14.61437 -2.155027,-0.87298 -4.716257,-0.56491 -6.992032,-0.56491 H 47.988048 m 27.071713,0.0598 v 29.10358 l 6.513944,-0.0598 v -29.04382 h -6.513944 m 8.247012,0 v 6.15538 h 6.573705 v 22.88844 h 6.334661 v -22.88844 h 6.573701 v -6.15538 H 83.306773 m 45.776897,28.80478 v -6.21514 h -10.51793 c -1.67521,0 -3.54542,0.23419 -5.19921,-0.0262 -1.57379,-0.24782 -2.20201,-1.97635 -1.808,-3.38013 0.5895,-2.10026 2.72686,-1.61355 4.43749,-1.61355 h 13.08765 v -6.2749 h -13.14742 c -1.68492,0 -3.85156,0.37531 -4.39372,-1.73307 -0.35547,-1.38239 0.29399,-3.10274 1.824,-3.37861 1.61112,-0.2905 3.50097,-0.0278 5.13945,-0.0278 h 10.57769 v -6.09562 h -12.37052 c -2.09339,0 -4.4925,-0.32537 -6.51395,0.30033 -2.51201,0.77754 -4.36362,2.98573 -5.02683,5.49648 -0.514,1.94586 -0.50068,4.04028 0.0493,5.9761 0.16896,0.59467 0.37595,1.18295 0.66179,1.73307 0.13194,0.25391 0.45824,0.60037 0.45148,0.89641 -0.007,0.29717 -0.35031,0.68983 -0.48357,0.95617 -0.32478,0.64915 -0.60922,1.3208 -0.76628,2.03188 -0.83003,3.75786 0.0692,8.17654 3.50053,10.35686 2.07463,1.31824 4.64895,1.05748 6.99203,1.05748 4.50221,0 9.00103,-0.0598 13.50598,-0.0598 m 26.83266,0.17928 v -6.2749 h -9.98008 c -1.44415,0 -3.29324,0.30871 -4.60159,-0.42067 -1.30724,-0.72877 -2.10913,-2.14313 -2.56972,-3.52355 -0.8962,-2.68596 -1.02158,-5.8418 -0.11952,-8.54582 0.45613,-1.36732 1.19827,-2.84231 2.50996,-3.56698 1.41764,-0.78321 3.17347,-0.437 4.72111,-0.437 h 10.03984 v -6.09562 c -3.76788,0 -7.52969,-0.0598 -11.29482,-0.0598 -2.49716,0 -4.974,-0.1321 -7.23107,1.1272 -2.24021,1.24989 -3.74282,3.49736 -4.7379,5.80507 -2.01669,4.67702 -2.02634,10.89802 0.0903,15.53785 0.89729,1.96688 2.20843,3.85208 4.04996,5.03832 2.40538,1.54945 5.08798,1.41586 7.82868,1.41586 h 11.29482 m 2.62949,-28.86454 v 28.80478 h 6.33466 v -11.35458 h 11.4741 v 11.35458 h 6.33466 v -28.80478 h -6.33466 v 8.12749 2.09163 l -0.0614,0.87742 -0.59595,0.13852 h -1.61354 -6.69323 -1.79283 l -0.65571,-0.13852 -0.0614,-0.87742 v -2.09163 -8.12749 h -6.33466 M 24.561753,178.35698 c -0.726684,0.63437 -0.956175,0.81973 -0.956175,1.79283 h 1.015936 l -0.05976,-1.79283 m 11.713147,5.49801 c -0.263208,0 -0.754,-0.0948 -0.977848,0.0614 -0.186826,0.13042 -0.256552,0.42344 -0.40938,0.59337 -0.376387,0.41851 -1.041173,0.56372 -1.541058,0.27943 -0.291758,-0.16592 -0.538721,-0.43671 -0.650915,-0.75494 -0.370055,-1.04964 -0.420296,-3.60477 0.949719,-3.92965 0.487477,-0.1156 0.978674,0.0767 1.291408,0.46444 0.125858,0.15603 0.184776,0.42071 0.351927,0.53527 0.227788,0.15611 0.719579,0.0614 0.986147,0.0614 -0.260768,-1.93492 -2.751557,-2.72841 -4.117925,-1.31235 -0.828319,0.85845 -0.673405,2.53963 -0.597843,3.64302 0.04337,0.63333 0.180388,1.26586 0.657604,1.72205 1.386798,1.32569 3.801886,0.53812 4.058164,-1.36348 m 3.227092,-4.69571 c -2.108759,0.28379 -2.316868,2.33379 -2.108697,4.0981 0.067,0.56787 0.01206,1.11066 0.351651,1.61331 0.560189,0.82918 1.532388,1.07112 2.474178,0.94691 1.685128,-0.22223 1.91235,-1.76019 1.91235,-3.15783 0,-0.70054 0.06097,-1.48228 -0.184863,-2.15139 -0.346945,-0.94433 -1.476706,-1.47935 -2.444619,-1.3491 m 73.326697,5.89093 c 1.26032,0.93341 4.45988,1.47043 4.71074,-0.83666 0.12919,-1.18818 -0.51838,-1.93301 -1.66294,-2.12538 -0.61318,-0.10307 -1.60125,-0.10771 -1.79389,-0.86266 -0.26763,-1.04883 1.13954,-1.32716 1.85365,-1.09064 0.22908,0.0759 0.4778,0.31543 0.71714,0.32403 0.22491,0.008 0.64248,-0.36103 0.57695,-0.60231 -0.11261,-0.41465 -0.99513,-0.61789 -1.35385,-0.65991 -1.13795,-0.13332 -2.49677,0.11297 -2.76048,1.43122 -0.33965,1.69787 0.97158,2.13497 2.34216,2.34709 0.62955,0.0974 1.31422,0.56358 1.01538,1.29828 -0.32555,0.80037 -1.54079,0.78453 -2.2106,0.51078 -0.22378,-0.0915 -0.53561,-0.42569 -0.77689,-0.39596 -0.28266,0.0348 -0.5488,0.42929 -0.65737,0.66212 m 30.41832,-5.89093 c -2.02701,0.27278 -2.15139,1.93017 -2.15139,3.62001 0,0.79527 0.006,1.69149 0.55748,2.32828 0.57532,0.66371 1.48325,0.82021 2.31104,0.71003 1.44649,-0.19253 1.74664,-1.3404 1.86273,-2.56022 0.17012,-1.78751 -0.10297,-4.43142 -2.57986,-4.0981 m 34.96016,6.96663 h 0.0598 l 0.53785,-0.53785 v -0.0598 l -0.65737,-0.59761 c 0.45709,-0.64769 0.41833,-1.45337 0.41833,-2.21116 0,-0.68388 0.0738,-1.42921 -0.13271,-2.09163 -0.47655,-1.5285 -2.65305,-1.93875 -3.81147,-0.94364 -0.97895,0.84094 -0.77694,2.17559 -0.77694,3.33408 0,0.77401 0.018,1.56159 0.60019,2.14899 0.60488,0.61024 1.44571,0.77044 2.26834,0.64207 0.24479,-0.0382 0.63954,-0.29931 0.87105,-0.24135 0.23229,0.0582 0.45923,0.3941 0.62297,0.55786 m -158.426334,-6.9322 v 6.63347 h 4.183267 v -0.89641 h -2.270916 c -0.220766,0 -0.628757,0.076 -0.800594,-0.0958 -0.250313,-0.25032 -0.09582,-1.12318 -0.09582,-1.45797 v -4.18327 h -1.015937 m 6.454184,0 v 6.63347 h 4.183267 v -0.89641 h -2.211156 c -0.242928,0 -0.666192,0.0795 -0.877416,-0.0614 -0.259725,-0.17331 -0.259727,-1.73571 0,-1.90903 0.188963,-0.12609 0.541682,-0.0614 0.757894,-0.0614 h 1.85259 v -0.83665 h -1.85259 c -0.216215,0 -0.568929,0.0647 -0.757894,-0.0614 -0.25759,-0.17189 -0.257588,-1.67738 0,-1.84927 0.211222,-0.14095 0.634492,-0.0614 0.877416,-0.0614 h 2.211156 v -0.89642 H 26.23506 m 17.390438,0 v 6.63347 h 4.123506 v -0.89641 h -2.270916 c -0.220756,0 -0.62876,0.076 -0.800594,-0.0958 -0.250311,-0.25031 -0.09582,-1.12318 -0.09582,-1.45797 v -4.18327 h -0.956175 m 5.318725,0 v 6.63347 h 4.183267 v -0.89641 h -2.211155 c -0.242929,0 -0.666191,0.0795 -0.877418,-0.0614 -0.259726,-0.17331 -0.259726,-1.73571 0,-1.90903 0.188963,-0.12609 0.541678,-0.0614 0.757896,-0.0614 h 1.852589 v -0.83665 h -1.852589 c -0.216218,0 -0.568933,0.0647 -0.757896,-0.0614 -0.257588,-0.17189 -0.257585,-1.67739 0,-1.84927 0.211224,-0.14095 0.634493,-0.0614 0.877418,-0.0614 h 2.211155 v -0.89642 h -4.183267 m 7.768924,0 v 6.63347 c 1.170365,0 2.811056,0.2824 3.823826,-0.43152 1.198021,-0.8445 1.051171,-3.26179 0.776893,-4.52864 -0.100293,-0.46324 -0.327438,-0.92141 -0.717132,-1.20785 -1.027922,-0.75557 -2.684228,-0.46546 -3.883587,-0.46546 m 6.155379,0 v 6.63347 h 4.243028 v -0.89641 h -2.211156 c -0.242924,0 -0.666197,0.0795 -0.877418,-0.0614 -0.259725,-0.17331 -0.259725,-1.73571 0,-1.90903 0.188964,-0.12609 0.541693,-0.0614 0.757896,-0.0614 h 1.85259 v -0.83665 h -1.85259 c -0.216224,0 -0.568925,0.0647 -0.757896,-0.0614 -0.257587,-0.17188 -0.257587,-1.67739 0,-1.84927 0.211228,-0.14095 0.634494,-0.0614 0.877418,-0.0614 h 2.211156 v -0.89642 h -4.243028 m 7.828685,0 v 6.63347 h 4.183267 V 184.931 h -3.167331 v -5.73706 h -1.015936 m 3.76494,0 v 1.85259 c 0.860662,-0.49512 1.075698,-0.90496 1.075698,-1.85259 h -1.075698 m 2.629482,0 v 6.63347 h 4.243028 V 184.931 h -2.211155 c -0.242925,0 -0.66619,0.0795 -0.877418,-0.0614 -0.259725,-0.17331 -0.259725,-1.73571 0,-1.90903 0.188963,-0.12609 0.541686,-0.0614 0.757896,-0.0614 h 1.85259 v -0.83665 h -1.85259 c -0.216225,0 -0.568925,0.0647 -0.757896,-0.0614 -0.257588,-0.17188 -0.257588,-1.67739 0,-1.84927 0.211235,-0.14096 0.634479,-0.0614 0.877418,-0.0614 h 2.211155 v -0.89642 h -4.243028 m 4.96016,0 1.302799,2.27092 0.499805,0.95618 -0.499805,0.95617 -1.422321,2.4502 1.122728,-0.0614 0.47703,-0.71547 0.910202,-1.67331 h 0.119522 l 0.947188,1.73307 0.440044,0.65571 1.122728,0.0614 -1.410379,-2.4502 -0.506903,-0.95617 0.494961,-0.95618 1.302799,-2.27092 -1.112128,0.0361 -0.42339,0.62131 -0.85492,1.61355 h -0.119522 l -0.851915,-1.61355 -0.426351,-0.62131 -1.112172,-0.0361 m 5.976095,0 v 6.63347 h 1.015937 v -1.91235 c 1.4e-5,-0.19964 -0.05598,-0.52592 0.138518,-0.65571 0.232763,-0.15532 0.727862,-0.0614 0.99694,-0.0614 0.754475,0 1.517324,-0.0248 2.037869,-0.66277 0.774638,-0.94936 0.51055,-2.6396 -0.663367,-3.13418 -1.032219,-0.43487 -2.427716,-0.20704 -3.525897,-0.20704 m 5.856574,0 v 6.63347 h 4.183267 v -0.89641 h -3.167331 v -2.03188 h 2.689243 v -0.83665 h -2.689243 v -1.97211 h 3.167331 v -0.89642 h -4.183267 m 5.557769,0 v 6.63347 h 1.015938 v -2.80876 c 0.3153,0 0.89903,-0.11264 1.17189,0.0614 0.80107,0.51099 0.67985,2.17493 1.48092,2.68592 0.27286,0.17406 0.85658,0.0614 1.17189,0.0614 l -1.49403,-2.92829 c 1.38484,-0.47231 1.79423,-2.52419 0.47786,-3.3639 -1.01065,-0.6447 -2.67735,-0.34128 -3.824468,-0.34128 m 5.498008,0 v 0.89642 h 1.79283 v 5.73705 h 1.01593 v -4.18327 c 0,-0.33479 -0.15449,-1.20765 0.0958,-1.45796 0.27684,-0.27683 1.32065,-0.0958 1.69701,-0.0958 v -0.89642 h -4.60159 m 5.79681,0 v 6.63347 h 0.95618 v -6.63347 h -0.95618 m 8.18725,0 v 6.63347 h 4.18327 v -0.89641 h -2.21116 c -0.24293,0 -0.66619,0.0795 -0.87741,-0.0614 -0.25974,-0.17331 -0.25973,-1.73571 0,-1.90903 0.18897,-0.1261 0.54167,-0.0614 0.75789,-0.0614 h 1.85259 v -0.83665 h -1.85259 c -0.21623,0 -0.56892,0.0647 -0.75789,-0.0614 -0.25759,-0.17189 -0.25759,-1.67739 0,-1.84927 0.21122,-0.14095 0.63448,-0.0614 0.87741,-0.0614 h 2.21116 v -0.89642 h -4.18327 m 7.76893,0 v 6.63347 h 1.01593 v -6.63347 h -1.01593 m 2.749,0 v 6.63347 h 0.95618 V 181.226 h 0.0598 l 2.13148,3.28685 0.87603,1.25332 0.93671,0.0614 v -6.63347 h -1.01594 v 4.54184 l -2.15139,-3.22709 -0.8676,-1.25333 -0.92523,-0.0614 m 6.69323,0 v 6.63347 h 0.95617 v -2.80876 h 2.74901 v -0.89642 h -1.85259 c -0.21623,0 -0.56893,0.0647 -0.7579,-0.0614 -0.25973,-0.17332 -0.25972,-1.73571 0,-1.90903 0.21122,-0.14095 0.63449,-0.0614 0.87742,-0.0614 h 2.21116 v -0.89642 h -4.18327 m 11.1753,0 v 6.63347 h 1.01593 v -1.25498 -0.77689 c 0,-0.18862 -0.0491,-0.47281 0.0614,-0.63838 0.15362,-0.23021 0.96201,-0.21323 1.15547,-0.0427 0.71112,0.62684 0.67978,1.99026 1.3909,2.61712 0.24973,0.22014 0.90158,0.0958 1.2169,0.0958 l -1.49402,-2.92829 c 1.39003,-0.47408 1.80479,-2.52648 0.47785,-3.37294 -1.00276,-0.63966 -2.68769,-0.33224 -3.82446,-0.33224 m 6.09561,0 v 6.63347 h 1.01594 v -4.30279 h 0.0598 l 1.05726,2.27092 0.50925,0.81765 0.66633,-0.0768 0.4433,-0.86035 0.96928,-2.1514 h 0.0598 v 4.30279 h 1.01594 v -6.63347 l -0.97786,0.0614 -0.61033,1.19356 -1.28034,2.80877 -1.38908,-2.92829 -0.56135,-1.07404 -0.97786,-0.0614 m 6.75299,6.63347 h 1.0757 c 0.0821,-0.35511 0.21461,-1.03668 0.50312,-1.27868 0.15267,-0.12807 0.38752,-0.0957 0.57258,-0.0958 0.46936,-2.1e-4 1.43236,-0.18363 1.83916,0.0614 0.39156,0.23587 0.26732,0.90304 0.5564,1.21726 0.19353,0.21037 0.80598,0.0958 1.07057,0.0958 -0.39421,-1.70435 -1.22288,-3.37242 -1.81122,-5.01992 -0.12246,-0.3429 -0.33835,-1.48164 -0.71216,-1.59455 -0.88229,-0.26649 -0.98712,0.74794 -1.21624,1.35551 -0.41909,1.1113 -0.81576,2.23122 -1.22372,3.34661 -0.22503,0.61527 -0.55827,1.26292 -0.65419,1.91235 m 5.43825,-6.63347 v 0.89642 h 1.79283 v 5.73705 h 1.01593 v -5.73705 h 1.79283 v -0.89642 h -4.60159 m 5.73705,0 v 6.63347 h 1.01594 v -6.63347 h -1.01594 m 8.60558,0 v 3.5259 c 0,0.712 -0.0542,1.45176 0.31965,2.09159 0.87116,1.49094 3.4761,1.38346 4.20281,-0.17924 0.28459,-0.61198 0.19865,-1.31573 0.19865,-1.97211 v -3.46614 h -0.95617 v 3.04781 c 0,0.56899 0.0665,1.18264 -0.10606,1.73307 -0.27045,0.86266 -1.37364,1.27717 -2.10418,0.69361 -0.56498,-0.45131 -0.53876,-1.11601 -0.53876,-1.76931 v -3.70518 h -1.01594 m 6.33466,0 v 6.63347 h 4.24303 v -0.89641 h -2.21116 c -0.24292,0 -0.66619,0.0795 -0.87742,-0.0614 -0.25971,-0.17331 -0.25971,-1.73571 0,-1.90903 0.18899,-0.12611 0.54168,-0.0614 0.7579,-0.0614 h 1.85259 v -0.83665 h -1.85259 c -0.21622,0 -0.56894,0.0647 -0.7579,-0.0614 -0.25758,-0.17189 -0.25758,-1.67738 0,-1.84927 0.21123,-0.14095 0.6345,-0.0614 0.87742,-0.0614 h 2.21116 v -0.89642 h -4.24303 m -146.593624,0.8593 c 1.57648,-0.0968 1.434263,1.80672 1.434263,2.84588 0,0.42611 0.01216,0.92062 -0.174487,1.31474 -0.188806,0.3987 -0.581283,0.67567 -1.020732,0.71156 -1.599868,0.13064 -1.553862,-1.54514 -1.553785,-2.68367 3.3e-5,-0.47577 -0.0057,-1.05962 0.212621,-1.49402 0.204247,-0.40646 0.65338,-0.66694 1.10212,-0.69449 m 103.745014,0 c 1.61656,-0.0993 1.55046,2.18696 1.40891,3.26421 -0.0371,0.28264 -0.0308,0.56843 -0.13986,0.83665 -0.17549,0.43148 -0.56329,0.73321 -1.03,0.77132 -1.6227,0.13251 -1.55379,-1.5381 -1.55379,-2.68367 0,-0.48121 -0.0337,-1.0573 0.20424,-1.49402 0.21874,-0.40159 0.65559,-0.66656 1.1105,-0.69449 m 33.94423,4.0411 c -0.1833,-0.12911 -0.38048,-0.4088 -0.59761,-0.46573 -0.21054,-0.0552 -0.52101,0.25517 -0.46573,0.46573 0.0594,0.22608 0.36587,0.438 0.52549,0.59761 -0.52901,0.57242 -1.53941,0.13716 -1.82787,-0.47809 -0.16039,-0.34207 -0.1306,-0.71015 -0.14659,-1.07569 -0.0327,-0.74747 -0.19595,-1.84569 0.2396,-2.50909 0.50785,-0.77354 1.77964,-0.74431 2.24084,0.0591 0.42186,0.73487 0.39884,2.6565 0.0319,3.40614 m -119.641435,0.83666 v -4.84064 c 0.684924,0 1.578365,-0.13907 2.150471,0.32214 0.806295,0.64999 0.588816,2.29166 0.481962,3.20375 -0.04551,0.38851 -0.166189,0.73985 -0.481962,0.99242 -0.567313,0.45378 -1.473375,0.32233 -2.150471,0.32233 m 31.314741,-2.62949 v -1.49402 c 0,-0.17392 -0.05449,-0.47497 0.06142,-0.62131 0.145849,-0.18416 0.627285,-0.0958 0.834997,-0.0958 0.490467,0 1.054972,-0.0234 1.421489,0.36502 0.695218,0.73681 0.10715,1.80145 -0.823879,1.84378 -0.496078,0.0226 -0.997415,0.002 -1.494024,0.002 m 11.414341,-0.11952 v -2.09163 c 0.62851,0 1.53024,-0.15922 2.09159,0.17979 0.66681,0.4027 0.66667,1.44115 -0.06,1.78102 -0.58119,0.27185 -1.4044,0.13082 -2.03164,0.13082 m 48.00704,-2.05557 c 0.49277,-0.24248 1.77586,-0.0812 2.16352,0.29437 0.49618,0.48076 0.34473,1.34486 -0.27021,1.63868 -0.42581,0.20345 -0.976,0.12273 -1.43422,0.12252 -0.15637,-7e-5 -0.42482,0.0448 -0.53618,-0.0958 -0.22044,-0.27833 -0.0638,-1.17041 -0.0614,-1.51772 10e-4,-0.15036 -0.0224,-0.36287 0.13847,-0.44203 m 14.56268,0.62131 0.95617,2.86852 h -2.03187 c 0.33875,-0.87819 0.5121,-2.11524 1.0757,-2.86852 z"
      id="path1"
    />
  </g>
</svg>
